<svg width="163" height="163" viewBox="0 0 163 163" fill="none" xmlns="http://www.w3.org/2000/svg">
<g id="Group 38">
<path id="Vector" d="M81.5006 161.368C125.632 161.368 161.407 125.593 161.407 81.4615C161.407 37.3302 125.632 1.55469 81.5006 1.55469C37.3693 1.55469 1.59375 37.3302 1.59375 81.4615C1.59375 125.593 37.3693 161.368 81.5006 161.368Z" stroke="#05FF00" stroke-width="2" stroke-miterlimit="10"/>
<path id="Vector_2" d="M81.4992 161.499C112.39 161.499 137.432 125.694 137.432 81.5269C137.432 37.3595 112.39 1.55469 81.4992 1.55469C50.6084 1.55469 25.5664 37.3595 25.5664 81.5269C25.5664 125.694 50.6084 161.499 81.4992 161.499Z" stroke="#05FF00" stroke-width="2" stroke-miterlimit="10"/>
<path id="Vector_3" d="M81.5001 161.424C95.6017 161.424 107.033 125.624 107.033 81.4622C107.033 37.3003 95.6017 1.5 81.5001 1.5C67.3984 1.5 55.9668 37.3003 55.9668 81.4622C55.9668 125.624 67.3984 161.424 81.5001 161.424Z" stroke="#05FF00" stroke-width="2" stroke-miterlimit="10"/>
<path id="Vector_4" d="M81.5269 137.432C125.694 137.432 161.499 112.39 161.499 81.4992C161.499 50.6084 125.694 25.5664 81.5269 25.5664C37.3595 25.5664 1.55469 50.6084 1.55469 81.4992C1.55469 112.39 37.3595 137.432 81.5269 137.432Z" stroke="#05FF00" stroke-width="2" stroke-miterlimit="10"/>
<path id="Vector_5" d="M81.4622 107.033C125.624 107.033 161.424 95.6017 161.424 81.5001C161.424 67.3984 125.624 55.9668 81.4622 55.9668C37.3003 55.9668 1.5 67.3984 1.5 81.5001C1.5 95.6017 37.3003 107.033 81.4622 107.033Z" stroke="#05FF00" stroke-width="2" stroke-miterlimit="10"/>
</g>
</svg>
