<svg width="101" height="101" viewBox="0 0 101 101" fill="none" xmlns="http://www.w3.org/2000/svg">
<path fill-rule="evenodd" clip-rule="evenodd" d="M50.6541 1.10746C49.9619 1.82921 49.9616 1.8289 49.9614 1.82866L49.9627 1.82989L49.9712 1.83824C49.9795 1.84634 49.9929 1.85952 50.0112 1.87772C50.0478 1.91413 50.1038 1.97062 50.1773 2.04675C50.3242 2.19903 50.5408 2.4298 50.8111 2.73561C51.3518 3.34744 52.1061 4.25831 52.9462 5.44075C54.6281 7.80797 56.6436 11.2488 57.9858 15.5455C60.3174 23.0097 60.6502 33.1496 53.4612 44.8728C56.8615 30.8629 53.275 20.6966 48.4144 13.8441C45.659 9.95943 42.5136 7.16515 40.0592 5.34191C38.8308 4.42943 37.7719 3.75747 37.0156 3.31146C36.6373 3.08838 36.3344 2.92159 36.1234 2.8093C36.0179 2.75315 35.9354 2.7106 35.8778 2.68144C35.8491 2.66686 35.8265 2.65562 35.8105 2.64769L35.7914 2.63829L35.7856 2.63544L35.7836 2.63449C35.7829 2.63413 35.7823 2.63383 35.347 3.53414C34.9118 4.43444 34.9113 4.43424 34.911 4.4341L34.9126 4.43487L34.9234 4.44016C34.9338 4.44531 34.9506 4.4537 34.9736 4.46536C35.0196 4.4887 35.0904 4.52511 35.1838 4.57483C35.3706 4.67427 35.648 4.82682 35.9996 5.03418C36.703 5.44904 37.702 6.08234 38.8666 6.94741C41.198 8.67928 44.1786 11.3293 46.7831 15.0012C51.3133 21.3878 54.7666 30.9443 51.5324 44.3406C50.448 29.936 43.889 21.3615 37.1419 16.3404C33.3214 13.4972 29.4671 11.8115 26.5698 10.8358C25.1198 10.3476 23.9053 10.0357 23.0483 9.84514C22.6197 9.74985 22.2801 9.68482 22.0448 9.64321C21.9271 9.62241 21.8355 9.60745 21.7717 9.59749C21.7399 9.59251 21.715 9.58878 21.6973 9.58619L21.6762 9.58315L21.6698 9.58224L21.6676 9.58194C21.6668 9.58183 21.6662 9.58174 21.5303 10.5725C21.3945 11.5632 21.3941 11.5631 21.3937 11.5631L21.3955 11.5633L21.4073 11.5651C21.4188 11.5667 21.4374 11.5695 21.4629 11.5735C21.5139 11.5815 21.5924 11.5942 21.6966 11.6127C21.905 11.6495 22.2159 11.7089 22.6142 11.7975C23.4113 11.9747 24.5569 12.2683 25.9316 12.7313C28.6836 13.658 32.3366 15.2574 35.9479 17.9448C42.2215 22.6136 48.4507 30.6217 49.5259 44.3314C44.042 30.9966 35.164 24.879 27.2033 22.1916C22.691 20.6684 18.5042 20.2563 15.447 20.2237C13.917 20.2074 12.6654 20.2861 11.7915 20.3697C11.3544 20.4115 11.0113 20.4546 10.7746 20.4877C10.6563 20.5043 10.5645 20.5184 10.5008 20.5286C10.4689 20.5338 10.4441 20.5379 10.4265 20.5409L10.4055 20.5445L10.3991 20.5456L10.397 20.546C10.3962 20.5462 10.3955 20.5463 10.5725 21.5305C10.7494 22.5147 10.749 22.5148 10.7487 22.5149L10.7504 22.5145L10.7622 22.5125C10.7736 22.5106 10.7922 22.5075 10.8177 22.5034C10.8686 22.4952 10.9472 22.4831 11.052 22.4684C11.2616 22.4391 11.5757 22.3995 11.982 22.3606C12.7948 22.2828 13.9752 22.2081 15.4257 22.2236C18.3297 22.2545 22.2984 22.6467 26.5636 24.0866C33.98 26.5902 42.3878 32.2889 47.6459 45.0184C38.3053 34.0119 27.9633 30.9325 19.5561 30.8363C14.7937 30.7818 10.6843 31.6837 7.76654 32.5974C6.30629 33.0547 5.14021 33.5164 4.33485 33.866C3.93203 34.0408 3.61904 34.1878 3.40418 34.2925C3.29673 34.3448 3.21379 34.3866 3.15637 34.416C3.12766 34.4307 3.10533 34.4423 3.08951 34.4506L3.07067 34.4606L3.06494 34.4636L3.06301 34.4646C3.0623 34.465 3.06169 34.4653 3.53414 35.3467C4.00659 36.2281 4.00618 36.2283 4.00589 36.2284L4.00745 36.2276L4.01804 36.222C4.02831 36.2166 4.045 36.208 4.06796 36.1962C4.1139 36.1727 4.18494 36.1368 4.28006 36.0905C4.47034 35.9978 4.7568 35.8631 5.13122 35.7006C5.88032 35.3754 6.97988 34.9396 8.36426 34.506C11.1358 33.6381 15.0316 32.7847 19.5332 32.8362C27.3564 32.9257 37.1079 35.7451 46.0383 46.2151C33.7563 38.6386 22.9722 38.9064 14.9491 41.4126C10.4036 42.8325 6.77451 44.9601 4.28236 46.7308C3.03511 47.617 2.06894 48.4164 1.41115 48.9977C1.08214 49.2885 0.829951 49.525 0.657982 49.6909C0.571988 49.7739 0.506021 49.8393 0.460509 49.885C0.437752 49.9078 0.420106 49.9258 0.407624 49.9386L0.392778 49.9538L0.388272 49.9585L0.38675 49.9601C0.386192 49.9607 0.385716 49.9612 1.10746 50.6533C1.82921 51.3455 1.8289 51.3458 1.82866 51.346L1.82989 51.3448L1.83824 51.3362C1.84634 51.3279 1.85952 51.3145 1.87772 51.2962C1.91413 51.2596 1.97062 51.2036 2.04675 51.1302C2.19903 50.9832 2.4298 50.7666 2.73561 50.4963C3.34744 49.9556 4.25831 49.2013 5.44075 48.3612C7.80797 46.6793 11.2488 44.6638 15.5455 43.3217C23.0139 40.9887 33.1609 40.6568 44.8925 47.8583C30.8725 44.4498 20.6998 48.0374 13.8441 52.9003C9.95943 55.6558 7.16515 58.8011 5.34191 61.2555C4.42943 62.4839 3.75747 63.5429 3.31146 64.2991C3.08838 64.6774 2.92159 64.9803 2.8093 65.1913C2.75315 65.2968 2.7106 65.3793 2.68144 65.4369C2.66686 65.4657 2.65562 65.4882 2.64769 65.5042L2.63829 65.5233L2.63544 65.5291L2.63449 65.5311C2.63413 65.5318 2.63383 65.5324 3.53414 65.9677C4.43444 66.403 4.43424 66.4034 4.4341 66.4037L4.43487 66.4021L4.44016 66.3913C4.44531 66.381 4.4537 66.3641 4.46536 66.3411C4.4887 66.2951 4.52511 66.2243 4.57483 66.1309C4.67427 65.9441 4.82682 65.6667 5.03418 65.3151C5.44904 64.6117 6.08234 63.6127 6.94741 62.4482C8.67928 60.1167 11.3293 57.1362 15.0012 54.5316C21.3878 50.0014 30.9443 46.5481 44.3406 49.7823C29.936 50.8667 21.3615 57.4257 16.3404 64.1728C13.4972 67.9933 11.8115 71.8476 10.8358 74.7449C10.3476 76.1949 10.0357 77.4094 9.84514 78.2664C9.74985 78.695 9.68482 79.0346 9.64321 79.2699C9.62241 79.3876 9.60745 79.4792 9.59749 79.543C9.59251 79.5748 9.58878 79.5997 9.58619 79.6174L9.58315 79.6385L9.58224 79.6449L9.58194 79.6471C9.58183 79.6479 9.58174 79.6485 10.5725 79.7843C11.5632 79.9202 11.5631 79.9206 11.5631 79.921L11.5633 79.9192L11.5651 79.9074L11.5699 79.8754L11.5735 79.8518C11.5815 79.8008 11.5942 79.7223 11.6127 79.6181C11.6495 79.4097 11.7089 79.0988 11.7975 78.7004C11.9747 77.9034 12.2683 76.7578 12.7313 75.3831C13.658 72.6311 15.2574 68.9781 17.9448 65.3668C22.6132 59.0937 30.6206 52.8648 44.3286 51.7891C30.9957 57.273 24.8788 66.1503 22.1916 74.1105C20.6684 78.6228 20.2563 82.8096 20.2237 85.8668C20.2074 87.3968 20.2861 88.6484 20.3697 89.5223C20.4115 89.9594 20.4546 90.3025 20.4877 90.5392C20.5043 90.6575 20.5184 90.7493 20.5286 90.813C20.5338 90.8448 20.5379 90.8697 20.5409 90.8873L20.5445 90.9083L20.5456 90.9146L20.546 90.9168C20.5462 90.9176 20.5463 90.9183 21.5305 90.7413C22.5147 90.5643 22.5148 90.5648 22.5149 90.5651L22.5145 90.5634L22.5125 90.5516C22.5106 90.5402 22.5075 90.5216 22.5034 90.4961C22.4952 90.4452 22.4831 90.3666 22.4684 90.2618C22.4391 90.0522 22.3995 89.7381 22.3606 89.3318C22.2828 88.5189 22.2081 87.3386 22.2236 85.8881C22.2545 82.9841 22.6467 79.0154 24.0866 74.7501C26.5902 67.3338 32.2889 58.9259 45.0184 53.6679C34.0119 63.0085 30.9325 73.3505 30.8363 81.7577C30.7818 86.5201 31.6837 90.6295 32.5974 93.5472C33.0547 95.0075 33.5164 96.1736 33.866 96.9789C34.0408 97.3818 34.1878 97.6947 34.2925 97.9096C34.3448 98.0171 34.3866 98.1 34.416 98.1574L34.4318 98.1882L34.4506 98.2243L34.4606 98.2431L34.4636 98.2488L34.4646 98.2508C34.465 98.2515 34.4653 98.2521 35.3467 97.7796C36.2281 97.3072 36.2283 97.3076 36.2284 97.3079L36.2276 97.3063L36.222 97.2957C36.2166 97.2855 36.208 97.2688 36.1962 97.2458C36.1727 97.1999 36.1368 97.1288 36.0905 97.0337C35.9978 96.8434 35.8631 96.557 35.7006 96.1826C35.3754 95.4335 34.9396 94.3339 34.506 92.9495C33.6381 90.178 32.7847 86.2822 32.8362 81.7806C32.9257 73.9574 35.7451 64.206 46.2149 55.2757C38.6386 67.5575 38.9065 78.3415 41.4126 86.3645C42.8325 90.91 44.9601 94.5391 46.7308 97.0312C47.617 98.2785 48.4164 99.2447 48.9977 99.9024C49.2885 100.231 49.525 100.484 49.6909 100.656C49.7739 100.742 49.8393 100.808 49.885 100.853C49.9078 100.876 49.9258 100.893 49.9386 100.906L49.9538 100.921L49.9585 100.925L49.9601 100.927C49.9607 100.927 49.9612 100.928 50.6533 100.206C51.3455 99.4844 51.3458 99.4847 51.346 99.4849L51.3448 99.4837L51.3362 99.4754L51.3299 99.4692L51.2962 99.4359C51.2596 99.3995 51.2036 99.343 51.1302 99.2668C50.9832 99.1146 50.7666 98.8838 50.4963 98.578C49.9556 97.9662 49.2013 97.0553 48.3612 95.8728C46.6793 93.5056 44.6638 90.0648 43.3217 85.7681C40.9887 78.2997 40.6568 68.1526 47.8583 56.421C44.4498 70.4412 48.0374 80.6139 52.9003 87.4697C55.6558 91.3544 58.8011 94.1486 61.2555 95.9719C62.4839 96.8844 63.5429 97.5563 64.2991 98.0023C64.6774 98.2254 64.9803 98.3922 65.1913 98.5045C65.2968 98.5606 65.3793 98.6032 65.4369 98.6323C65.4657 98.6469 65.4882 98.6582 65.5042 98.6661L65.5233 98.6755L65.5291 98.6783L65.5311 98.6793C65.5318 98.6796 65.5324 98.68 65.9677 97.7796C66.403 96.8793 66.4034 96.8795 66.4037 96.8797L66.4021 96.8789L66.3913 96.8736L66.3783 96.8671L66.3411 96.8484C66.2951 96.8251 66.2243 96.7887 66.1309 96.739C65.9441 96.6395 65.6667 96.487 65.3151 96.2796C64.6117 95.8648 63.6127 95.2314 62.4482 94.3664C60.1167 92.6345 57.1362 89.9845 54.5316 86.3126C50.0014 79.926 46.5481 70.3695 49.7823 56.9732C50.8667 71.3778 57.4257 79.9523 64.1728 84.9734C67.9933 87.8166 71.8476 89.5023 74.7449 90.4779C76.1949 90.9662 77.4094 91.2781 78.2664 91.4686C78.695 91.5639 79.0346 91.629 79.2699 91.6706C79.3876 91.6914 79.4792 91.7063 79.543 91.7163L79.5902 91.7235L79.6174 91.7276L79.6385 91.7306L79.6449 91.7315L79.6471 91.7318C79.6479 91.732 79.6485 91.732 79.7843 90.7413C79.9202 89.7506 79.9206 89.7506 79.921 89.7507L79.9192 89.7504L79.9074 89.7487C79.8959 89.747 79.8773 89.7443 79.8518 89.7403C79.8008 89.7323 79.7223 89.7195 79.6181 89.7011C79.4097 89.6643 79.0988 89.6049 78.7004 89.5163C77.9034 89.3391 76.7578 89.0454 75.3831 88.5825C72.6311 87.6558 68.9781 86.0564 65.3668 83.3689C59.0935 78.7004 52.8644 70.6927 51.7889 56.9838C57.2729 70.3169 66.1503 76.4339 74.1105 79.121C78.6228 80.6443 82.8096 81.0564 85.8668 81.089C87.3968 81.1053 88.6484 81.0266 89.5223 80.943C89.9594 80.9011 90.3025 80.8581 90.5392 80.8249C90.6575 80.8083 90.7493 80.7942 90.813 80.784C90.8448 80.7789 90.8697 80.7748 90.8873 80.7718L90.9083 80.7682L90.9146 80.767L90.9168 80.7666C90.9176 80.7665 90.9183 80.7664 90.7413 79.7822C90.5643 78.7979 90.5648 78.7979 90.5651 78.7978L90.5634 78.7981L90.5516 78.8001L90.526 78.8044L90.4961 78.8093C90.4452 78.8175 90.3666 78.8296 90.2618 78.8442C90.0522 78.8736 89.7381 78.9132 89.3318 78.952C88.5189 79.0298 87.3386 79.1045 85.8881 79.0891C82.9841 79.0582 79.0154 78.666 74.7501 77.2261C67.3345 74.7227 58.9275 69.0248 53.6693 56.2977C63.0096 67.3029 73.351 70.3819 81.7577 70.4781C86.5201 70.5326 90.6295 69.6308 93.5472 68.717C95.0075 68.2597 96.1736 67.798 96.9789 67.4484C97.3818 67.2736 97.6947 67.1266 97.9096 67.0219C98.0171 66.9696 98.1 66.9278 98.1574 66.8984C98.1861 66.8837 98.2085 66.8721 98.2243 66.8638L98.2431 66.8539L98.2488 66.8508L98.2508 66.8498C98.2515 66.8494 98.2521 66.8491 97.7796 65.9677C97.3072 65.0864 97.3076 65.0862 97.3079 65.086L97.3063 65.0868L97.2957 65.0924C97.2855 65.0978 97.2688 65.1065 97.2458 65.1182C97.1999 65.1418 97.1288 65.1776 97.0337 65.2239C96.8434 65.3166 96.557 65.4513 96.1826 65.6138C95.4335 65.939 94.3339 66.3748 92.9495 66.8084C90.178 67.6764 86.2822 68.5297 81.7806 68.4782C73.9538 68.3887 64.1969 65.5667 55.2631 55.0848C67.5501 62.669 78.3387 62.4018 86.3645 59.8948C90.91 58.4749 94.5391 56.3473 97.0312 54.5766C98.2785 53.6904 99.2447 52.8911 99.9024 52.3097C100.231 52.0189 100.484 51.7824 100.656 51.6165C100.742 51.5335 100.808 51.4681 100.853 51.4224C100.876 51.3996 100.893 51.3816 100.906 51.3688L100.921 51.3536L100.925 51.3489L100.927 51.3473C100.927 51.3468 100.928 51.3463 100.206 50.6541C99.4844 49.9619 99.4847 49.9616 99.4849 49.9614L99.4837 49.9627L99.4754 49.9712L99.4644 49.9824L99.4359 50.0112C99.3995 50.0478 99.343 50.1038 99.2668 50.1773C99.1146 50.3242 98.8838 50.5408 98.578 50.8111C97.9662 51.3518 97.0553 52.1061 95.8728 52.9462C93.5056 54.6281 90.0648 56.6436 85.7681 57.9858C78.3039 60.3174 68.164 60.6502 56.4407 53.4612C70.4507 56.8616 80.6171 53.2751 87.4697 48.4144C91.3544 45.659 94.1486 42.5136 95.9719 40.0592C96.8844 38.8308 97.5563 37.7719 98.0023 37.0156C98.2254 36.6373 98.3922 36.3344 98.5045 36.1234C98.5606 36.0179 98.6032 35.9354 98.6323 35.8778L98.653 35.8368L98.6661 35.8105L98.6755 35.7914L98.6783 35.7856L98.6793 35.7836C98.6796 35.7829 98.68 35.7823 97.7796 35.347C96.8793 34.9118 96.8795 34.9113 96.8797 34.911L96.8789 34.9126L96.8736 34.9234C96.8685 34.9338 96.8601 34.9506 96.8484 34.9736C96.8251 35.0196 96.7887 35.0904 96.739 35.1838C96.6395 35.3706 96.487 35.648 96.2796 35.9996C95.8648 36.703 95.2314 37.702 94.3664 38.8666C92.6345 41.198 89.9845 44.1786 86.3126 46.7831C79.926 51.3133 70.3695 54.7666 56.9732 51.5324C71.3778 50.448 79.9523 43.889 84.9734 37.1419C87.8166 33.3214 89.5023 29.4671 90.4779 26.5698C90.9662 25.1198 91.2781 23.9053 91.4686 23.0483C91.5639 22.6197 91.629 22.2801 91.6706 22.0448C91.6914 21.9271 91.7063 21.8355 91.7163 21.7717L91.7242 21.7202L91.7276 21.6973L91.7306 21.6762L91.7315 21.6698L91.7318 21.6676C91.732 21.6668 91.732 21.6662 90.7413 21.5303C89.7506 21.3945 89.7506 21.3941 89.7507 21.3937L89.7504 21.3955L89.7487 21.4073L89.7447 21.4342L89.7403 21.4629C89.7323 21.5139 89.7195 21.5924 89.7011 21.6966C89.6643 21.905 89.6049 22.2159 89.5163 22.6142C89.3391 23.4113 89.0454 24.5569 88.5825 25.9316C87.6558 28.6836 86.0564 32.3366 83.3689 35.9479C78.7001 42.2217 70.6916 48.4511 56.981 49.526C70.316 44.0421 76.4337 35.1641 79.121 27.2033C80.6443 22.691 81.0564 18.5042 81.089 15.447C81.1053 13.917 81.0266 12.6654 80.943 11.7915C80.9011 11.3544 80.8581 11.0113 80.8249 10.7746C80.8083 10.6563 80.7942 10.5645 80.784 10.5008C80.7789 10.4689 80.7748 10.4441 80.7718 10.4265L80.7682 10.4055L80.767 10.3991L80.7666 10.397C80.7665 10.3962 80.7664 10.3955 79.7822 10.5725C78.7979 10.7494 78.7979 10.749 78.7978 10.7487L78.7981 10.7504L78.8001 10.7622C78.8021 10.7736 78.8052 10.7922 78.8093 10.8177C78.8175 10.8686 78.8296 10.9472 78.8442 11.052C78.8736 11.2616 78.9132 11.5757 78.952 11.982C79.0298 12.7948 79.1045 13.9752 79.0891 15.4257C79.0582 18.3297 78.666 22.2984 77.2261 26.5636C74.7227 33.9793 69.0248 42.3863 56.2977 47.6445C67.3029 38.3042 70.3819 27.9628 70.4781 19.5561C70.5326 14.7937 69.6308 10.6843 68.717 7.76654C68.2597 6.30629 67.798 5.14021 67.4484 4.33485C67.2736 3.93203 67.1266 3.61904 67.0219 3.40418C66.9696 3.29673 66.9278 3.21379 66.8984 3.15637C66.8837 3.12766 66.8721 3.10533 66.8638 3.08951L66.8539 3.07067L66.8508 3.06494L66.8498 3.06301C66.8494 3.0623 66.8491 3.06169 65.9677 3.53414C65.0864 4.00659 65.0862 4.00618 65.086 4.00589L65.0868 4.00745L65.0924 4.01804C65.0978 4.02831 65.1065 4.045 65.1182 4.06796C65.1418 4.1139 65.1776 4.18494 65.2239 4.28006C65.3166 4.47034 65.4513 4.7568 65.6138 5.13122C65.939 5.88032 66.3748 6.97988 66.8084 8.36426C67.6764 11.1358 68.5297 15.0316 68.4782 19.5332C68.3887 27.3601 65.5667 37.1171 55.0845 46.0509C62.669 33.7637 62.4018 22.975 59.8948 14.9491C58.4749 10.4036 56.3473 6.77451 54.5766 4.28236C53.6904 3.03511 52.8911 2.06894 52.3097 1.41115C52.0189 1.08214 51.7824 0.829951 51.6165 0.657982C51.5335 0.571988 51.4681 0.506021 51.4224 0.460509C51.3996 0.437752 51.3816 0.420106 51.3688 0.407624L51.3536 0.392778L51.3489 0.388272L51.3473 0.38675C51.3468 0.386192 51.3463 0.385716 50.6541 1.10746Z" fill="#05FF00"/>
</svg>
