<svg width="60" height="40" viewBox="0 0 60 40" fill="none" xmlns="http://www.w3.org/2000/svg">
<path id="Logo" fill-rule="evenodd" clip-rule="evenodd" d="M40.5309 8.72394L40.5292 8.72293V8.72218L40.5309 8.72394ZM40.5292 8.72293L25.42 0L25.4142 12.9524H28.0478V4.57522L37.9102 10.2449V12.9524H40.5311L40.5292 8.72293ZM37.9102 27.2259H40.5375L40.5415 36.0678L25.4077 27.3385L25.4077 27.2259H30.4325L37.9102 31.6476V31.6459V27.2259ZM21.7499 1.93899L18.923 3.58684V12.8635H21.7499V1.93899ZM18.923 31.4083V27.3155H21.7499V29.7675L36.6159 38.3575L33.7907 40.0001L18.923 31.4083ZM0 14.9527H2.88507V25.0478H0V14.9527ZM7.09438 25.0478V21.7168L7.09262 21.7186C7.09262 20.4003 7.08381 19.357 7.06442 18.5885L7.19484 18.5604C7.57023 19.2724 8.11306 20.2435 8.82507 21.4736L10.9012 25.0496H13.8867V14.9545H11.0739V18.0845C11.0739 19.3235 11.0827 20.3051 11.1021 21.026L10.9876 21.0542C10.6033 20.3421 10.1081 19.4768 9.50184 18.4581L7.42572 14.9527H4.32563V25.0478H7.09438ZM14.5359 14.9527H17.5497L17.7224 15.7599L18.2423 18.2555C18.5789 19.8522 18.8239 21.0489 18.9772 21.8472H19.0918C19.2363 20.9044 19.4901 19.5068 19.8567 17.6509L20.2321 15.7176L20.3766 14.9527H23.2898L23.4344 15.7176L23.8097 17.6509C24.1746 19.5068 24.4301 20.9061 24.5746 21.8472H24.6892C24.9483 20.4338 25.3677 18.4053 25.944 15.7616L26.1167 14.9545H29.1305L26.404 25.0496H23.1453L21.8905 18.4017H21.7759L20.5211 25.0496H17.2624L14.5359 14.9545V14.9527ZM35.1741 23.014L35.8086 25.0478H38.8664L35.1459 14.9527H31.57L27.9782 25.0478H30.9197L31.54 23.014H35.1741ZM34.122 19.6548L34.5256 20.9237L34.5273 20.9255H32.1904L32.5657 19.6989C32.853 18.756 33.0945 17.8994 33.2866 17.131H33.4011C33.5932 17.8906 33.8329 18.7313 34.122 19.6548ZM45.7156 25.0478L45.4565 22.9999C45.4089 22.635 45.3332 22.3636 45.2327 22.1856C45.1322 22.0076 44.9701 21.8878 44.7498 21.8243C44.5295 21.7627 44.2017 21.7309 43.7699 21.7309H42.3282V25.0478H39.4432V14.9527H45.1252C46.1633 14.9527 46.9563 15.1659 47.5044 15.5942C48.0526 16.0225 48.3275 16.6446 48.3275 17.4624C48.3275 18.1938 48.0772 18.7895 47.5767 19.2512C47.0762 19.713 46.4135 19.9632 45.5869 20.0002V20.1148C46.1633 20.106 46.625 20.1659 46.9722 20.2946C47.3194 20.4232 47.5855 20.6365 47.7723 20.929C47.9592 21.2216 48.0913 21.6234 48.1689 22.1328L48.6024 25.046H45.7174L45.7156 25.0478ZM45.1463 19.4662C45.4107 19.2072 45.5429 18.8652 45.5429 18.4423C45.5429 18.0475 45.4107 17.7285 45.1463 17.4835C44.882 17.2385 44.5383 17.1152 44.1153 17.1152H42.3265V19.8557H44.1153C44.5383 19.8557 44.882 19.7253 45.1463 19.4662ZM59.3135 19.9521C59.3135 18.8083 59.0738 17.8584 58.5927 17.1041C58.1133 16.3498 57.4753 15.7946 56.6823 15.4386C55.8892 15.0826 55.0062 14.9046 54.0351 14.9046H49.5357V24.9997H54.0351C55.5737 24.9997 56.8373 24.6014 57.8278 23.803C58.8183 23.0046 59.3135 21.7216 59.3135 19.9521ZM56.3439 19.9521C56.3439 20.9144 56.1112 21.6352 55.6442 22.1164C55.1772 22.5975 54.6026 22.8372 53.9206 22.8372H52.4207V17.0688H53.9065C54.6079 17.0688 55.1895 17.2909 55.6512 17.7385C56.113 18.1862 56.3439 18.9229 56.3439 19.9521Z" fill="black"/>
</svg>
