<svg width="111" height="52" viewBox="0 0 111 52" fill="none" xmlns="http://www.w3.org/2000/svg">
<path d="M39.8634 22.9276C32.9193 18.4077 23.8168 12.8862 16.1199 8.30356C24.3966 11.7409 34.2023 15.3833 41.3246 16.6703L41.325 16.6704C45.2202 17.3725 48.3544 16.7587 50.8444 15.3811C53.3172 14.0129 55.0779 11.9347 56.3224 9.82426C56.8606 8.91148 57.3068 7.98514 57.6756 7.09474C57.8567 8.36001 58.1245 9.76265 58.5175 11.2471C60.0479 17.0283 63.4918 24.0964 71.1364 29.0722C78.0754 33.5888 87.1695 39.1055 94.8629 43.6862C86.5909 40.2507 76.7947 36.613 69.675 35.3296C65.7798 34.6275 62.6456 35.2413 60.1556 36.6189C57.6828 37.9871 55.9221 40.0653 54.6776 42.1757C54.1395 43.0884 53.6933 44.0146 53.3245 44.9049C53.1435 43.6391 52.8756 42.2359 52.4825 40.7508C50.9521 34.969 47.5082 27.9008 39.8634 22.9276Z" fill="#05FF00" stroke="#05FF00" stroke-width="2"/>
</svg>
