<svg width="628" height="307" viewBox="0 0 628 307" fill="none" xmlns="http://www.w3.org/2000/svg">
<path d="M624.837 251.25C619.797 267.269 606.372 279.879 586.282 288.931C566.194 297.984 539.496 303.452 508.032 305.21C445.11 308.727 363.239 297.401 277.347 270.38C191.455 243.359 117.845 205.772 68.2694 166.864C43.4799 147.409 24.7211 127.64 13.4333 108.717C2.1451 89.7936 -1.64339 71.7686 3.39617 55.7493C8.43573 39.7299 21.8616 27.1204 41.9509 18.0679C62.0396 9.01567 88.7377 3.54736 120.201 1.78885C183.123 -1.72796 264.994 9.59841 350.886 36.6195C436.779 63.6407 510.388 101.227 559.964 140.135C584.753 159.59 603.512 179.359 614.8 198.282C626.088 217.206 629.877 235.231 624.837 251.25Z" stroke="#05FF00"/>
</svg>
