<svg width="160" height="160" viewBox="0 0 160 160" fill="none" xmlns="http://www.w3.org/2000/svg">
<g id="_Approach List: Visual">
<path id="Union" fill-rule="evenodd" clip-rule="evenodd" d="M78.2591 2.01513C35.9827 2.94068 1.99609 37.5011 1.99609 79.9996C1.99609 93.6771 5.51636 106.532 11.7003 117.709L78.2591 2.01513ZM13.431 120.68C27.1407 143.067 51.8258 158.003 79.9996 158.003C108.173 158.003 132.859 143.067 146.568 120.68L111.1 120.68H79.6414H48.183L13.431 120.68ZM90.8844 118.68H110.1V99.4648C106.82 108.347 99.7664 115.4 90.8844 118.68ZM110.1 88.2217C110.1 105.043 96.4631 118.68 79.6414 118.68C62.8197 118.68 49.183 105.043 49.183 88.2217C49.183 71.4 62.8197 57.7633 79.6414 57.7633C96.4631 57.7633 110.1 71.4 110.1 88.2217ZM110.1 76.9786C106.82 68.0967 99.7664 61.043 90.8844 57.7633H110.1V76.9786ZM79.6414 55.7633H110.353L79.999 3.00144L49.6451 55.7633H79.6414ZM68.3983 57.7633H49.183V76.9786C52.4627 68.0967 59.5164 61.043 68.3983 57.7633ZM47.183 88.2217V60.0429L13.4489 118.68H47.183V88.2217ZM49.183 99.4648C52.4627 108.347 59.5164 115.4 68.3983 118.68H49.183V99.4648ZM112.1 88.2217V118.68H146.549L112.1 58.7997V88.2217ZM148.298 117.71C154.483 106.533 158.003 93.6776 158.003 79.9996C158.003 37.5007 124.016 2.94001 81.7389 2.0151L148.298 117.71ZM79.9996 -0.00390625C35.8149 -0.00390625 -0.00390625 35.8149 -0.00390625 79.9996C-0.00390625 124.184 35.8149 160.003 79.9996 160.003C124.184 160.003 160.003 124.184 160.003 79.9996C160.003 35.8149 124.184 -0.00390625 79.9996 -0.00390625Z" fill="#05FF00"/>
</g>
</svg>
