<svg width="300" height="300" viewBox="0 0 300 300" fill="none" xmlns="http://www.w3.org/2000/svg">
<path fill-rule="evenodd" clip-rule="evenodd" d="M2.83343 147.129C2.96083 128.184 6.71381 110.101 13.4332 93.5379L43.3153 105.891C38.153 118.654 35.2568 132.567 35.1281 147.129H2.83343ZM44.0817 104.043L14.1979 91.6898C21.4205 74.5709 31.8295 59.1253 44.6818 46.096L67.5572 68.9714C57.6862 79.0181 49.6735 90.8965 44.0817 104.043ZM75.7788 117.146L45.9306 104.807C51.4209 91.9056 59.285 80.2477 68.9715 70.3857L91.8025 93.2167C85.0926 100.096 79.6285 108.195 75.7788 117.146ZM107.474 130.248L77.6277 117.91C81.3758 109.204 86.6913 101.325 93.2168 94.631L116.043 117.458C112.493 121.167 109.578 125.49 107.474 130.248ZM143.886 145.3L109.324 131.013C111.325 126.499 114.092 122.397 117.458 118.872L143.886 145.3ZM187.697 163.411L153.148 149.129H190.528C190.413 154.151 189.42 158.961 187.697 163.411ZM219.399 176.516L189.547 164.175C191.366 159.49 192.413 154.422 192.528 149.129H224.83C224.708 158.789 222.791 168.024 219.399 176.516ZM251.088 189.615L221.248 177.28C224.737 168.553 226.708 159.059 226.83 149.129H259.125C258.998 163.425 256.155 177.085 251.088 189.615ZM282.814 202.73L252.937 190.38C258.101 177.614 260.998 163.696 261.125 149.129H293.42C293.292 168.077 289.537 186.164 282.814 202.73ZM252.17 192.227L282.049 204.578C274.827 221.691 264.42 237.132 251.572 250.157L228.7 227.286C238.569 217.243 246.579 205.369 252.17 192.227ZM220.482 179.127L250.321 191.463C244.832 204.36 236.97 216.013 227.286 225.872L204.469 203.055C211.174 196.176 216.635 188.077 220.482 179.127ZM188.78 166.023L218.633 178.363C214.887 187.068 209.576 194.946 203.054 201.64L180.224 178.81C183.77 175.1 186.681 170.779 188.78 166.023ZM152.397 150.983L186.931 165.258C184.933 169.77 182.171 173.871 178.81 177.396L152.397 150.983ZM108.557 132.86L143.074 147.129H105.719C105.838 142.111 106.833 137.305 108.557 132.86ZM76.861 119.758L106.707 132.095C104.887 136.777 103.838 141.84 103.719 147.129H71.424C71.5499 137.475 73.4684 128.245 76.861 119.758ZM45.1642 106.655L75.0121 118.993C71.5222 127.716 69.55 137.204 69.4238 147.129H37.1281C37.2567 132.838 40.0992 119.183 45.1642 106.655ZM68.9713 67.5571L46.096 44.6818C59.078 31.8761 74.4589 21.4961 91.5035 14.2766L103.897 44.1404C90.8082 49.7296 78.9806 57.7209 68.9713 67.5571ZM105.744 43.3714L93.3505 13.5094C109.965 6.74218 128.113 2.96131 147.129 2.83343V35.1279C132.511 35.255 118.547 38.1721 105.744 43.3714ZM70.3856 68.9714C80.2109 59.319 91.8189 51.4759 104.664 45.9882L117.049 75.8308C108.137 79.6752 100.072 85.1207 93.2169 91.8027L70.3856 68.9714ZM106.51 45.2192L118.896 75.0621C127.645 71.5502 137.167 69.566 147.129 69.4417V37.128C132.782 37.2549 119.077 40.1179 106.51 45.2192ZM94.6313 93.217C101.302 86.7188 109.148 81.4216 117.816 77.6787L130.196 107.509C125.459 109.608 121.155 112.511 117.458 116.044L94.6313 93.217ZM119.662 76.91L132.043 106.741C136.739 104.911 141.821 103.857 147.129 103.74V71.4418C137.439 71.566 128.176 73.496 119.662 76.91ZM118.873 117.458C122.385 114.109 126.47 111.354 130.963 109.358L145.288 143.874L118.873 117.458ZM132.81 108.589L147.129 143.092V105.741C142.092 105.857 137.269 106.856 132.81 108.589ZM149.129 190.549V153.129L163.471 187.687C159.005 189.427 154.174 190.431 149.129 190.549ZM150.996 152.41L165.317 186.917C169.806 184.918 173.887 182.161 177.396 178.81L150.996 152.41ZM149.129 192.549C154.446 192.431 159.536 191.373 164.238 189.535L176.619 219.368C168.099 222.789 158.828 224.723 149.129 224.848V192.549ZM166.084 188.766L178.465 218.599C187.13 214.853 194.973 209.554 201.64 203.055L178.811 180.225C175.117 183.759 170.817 186.664 166.084 188.766ZM149.129 226.848C159.1 226.723 168.63 224.735 177.386 221.216L189.759 251.03C177.189 256.133 163.48 258.997 149.129 259.125V226.848ZM179.232 220.447L191.605 250.261C204.446 244.774 216.05 236.934 225.872 227.286L203.055 204.469C196.203 211.152 188.141 216.6 179.232 220.447ZM149.129 261.125C163.752 260.997 177.72 258.079 190.526 252.878L202.918 282.738C186.301 289.508 168.149 293.291 149.129 293.42V261.125ZM192.372 252.108L204.765 281.97C221.804 274.751 237.179 264.373 250.157 251.572L227.286 228.7C217.28 238.532 205.456 246.52 192.372 252.108ZM93.5383 282.82C110.101 289.54 128.185 293.292 147.129 293.42V261.142C132.564 261.016 118.648 258.12 105.883 252.958L93.5383 282.82ZM91.6903 282.056C74.5766 274.835 59.1351 264.43 46.1082 251.584L68.9708 228.721C79.0154 238.59 90.8912 246.601 104.036 252.191L91.6903 282.056ZM104.8 250.343C91.9004 244.854 80.245 236.991 70.385 227.307L93.2108 204.481C100.089 211.188 108.188 216.649 117.137 220.497L104.8 250.343ZM117.902 218.648L130.24 188.8C125.483 186.699 121.162 183.787 117.452 180.24L94.6251 203.067C101.319 209.589 109.197 214.902 117.902 218.648ZM131.005 186.951C126.492 184.952 122.391 182.188 118.866 178.825L145.284 152.407L131.005 186.951ZM149.129 143.107L163.403 108.576C158.956 106.853 154.149 105.858 149.129 105.741V143.107ZM106.647 251.109C119.176 256.174 132.833 259.015 147.127 259.142V259.13H147.129V226.848C137.201 226.724 127.71 224.753 118.985 221.263L106.647 251.109ZM119.749 219.414C128.239 222.807 137.472 224.724 147.129 224.848V192.55C141.838 192.433 136.771 191.386 132.088 189.566L119.749 219.414ZM132.852 187.717L147.129 153.18V190.549C142.108 190.433 137.3 189.44 132.852 187.717ZM150.967 143.897L177.39 117.474C173.865 114.109 169.763 111.343 165.25 109.343L150.967 143.897ZM166.015 107.494C170.772 109.596 175.095 112.51 178.804 116.059L201.634 93.2289C194.94 86.7045 187.061 81.3901 178.355 77.643L166.015 107.494ZM179.119 75.794C188.07 79.6428 196.169 85.1058 203.049 91.8146L225.884 68.9793C216.023 59.29 204.366 51.4236 191.463 45.932L179.119 75.794ZM192.228 44.0831C205.375 49.6762 217.253 57.6913 227.298 67.565L250.169 44.6938C237.141 31.8398 221.697 21.4289 204.579 14.2043L192.228 44.0831ZM44.6938 250.169L67.5565 227.307C57.7194 217.297 49.7279 205.467 44.1389 192.376L14.2835 204.766C21.5049 221.81 31.8866 237.189 44.6938 250.169ZM43.37 190.529C38.17 177.722 35.2533 163.753 35.1278 149.129H2.83346C2.96195 168.149 6.74518 186.302 13.516 202.919L43.37 190.529ZM45.2178 189.763C40.1158 177.191 37.2533 163.481 37.1279 149.129H69.4234C69.5462 159.098 71.5316 168.627 75.0469 177.383L45.2178 189.763ZM45.9867 191.609C51.4742 204.456 59.3175 216.066 68.9708 225.893L91.7965 203.067C85.1108 196.211 79.6623 188.144 75.8158 179.229L45.9867 191.609ZM77.6637 178.463C81.4087 187.133 86.7089 194.981 93.2108 201.652L116.037 178.826C112.5 175.128 109.593 170.822 107.493 166.083L77.6637 178.463ZM76.8948 176.616L106.724 164.237C104.889 159.534 103.834 154.445 103.718 149.129H71.4236C71.5461 158.827 73.4774 168.097 76.8948 176.616ZM109.341 165.316C111.34 169.812 114.098 173.898 117.452 177.411L143.882 150.981L109.341 165.316ZM143.127 149.129L108.572 163.47C106.835 159.004 105.834 154.174 105.719 149.129H143.127ZM152.419 145.273L178.804 118.888C182.151 122.396 184.904 126.475 186.901 130.963L152.419 145.273ZM153.164 147.129L187.67 132.809C189.406 137.268 190.408 142.091 190.527 147.129H153.164ZM189.518 132.042C191.352 136.738 192.408 141.82 192.528 147.129H224.829C224.703 137.437 222.77 128.174 219.353 119.66L189.518 132.042ZM188.749 130.195L218.584 117.814C214.84 109.151 209.544 101.31 203.048 94.6432L180.218 117.473C183.749 121.166 186.65 125.465 188.749 130.195ZM220.432 117.047C216.587 108.14 211.142 100.08 204.463 93.2289L227.298 70.3937C236.945 80.2173 244.783 91.8226 250.268 104.664L220.432 117.047ZM221.201 118.893L251.036 106.511C256.136 119.077 258.998 132.783 259.125 147.129H226.83C226.703 137.166 224.716 127.643 221.201 118.893ZM252.884 105.744C258.082 118.547 260.998 132.511 261.125 147.129H293.42C293.292 128.113 289.511 109.965 282.744 93.3516L252.884 105.744ZM281.977 91.5046C274.76 74.4649 264.384 59.0879 251.584 46.1082L228.712 68.9794C238.543 78.987 246.529 90.8118 252.115 103.898L281.977 91.5046ZM176.507 76.8765L164.168 106.727C159.485 104.907 154.419 103.859 149.129 103.74V71.4419C158.786 71.5662 168.018 73.4839 176.507 76.8765ZM177.272 75.0276C168.547 71.5377 159.056 69.5662 149.129 69.4417V37.128C163.426 37.2551 177.085 40.0982 189.616 45.1654L177.272 75.0276ZM190.38 43.3165C177.614 38.152 163.696 35.2551 149.129 35.1279V2.83346C168.078 2.96147 186.165 6.71666 202.731 13.4394L190.38 43.3165ZM148.127 0.830078C66.777 0.830078 0.830078 66.777 0.830078 148.127C0.830078 229.476 66.777 295.423 148.127 295.423C229.476 295.423 295.423 229.476 295.423 148.127C295.423 66.777 229.476 0.830078 148.127 0.830078Z" fill="#05FF00"/>
</svg>
