<svg width="300" height="300" viewBox="0 0 300 300" fill="none" xmlns="http://www.w3.org/2000/svg">
<path fill-rule="evenodd" clip-rule="evenodd" d="M150.464 1.8238L149.806 2.50983L149.771 2.54549L149.773 2.54687L149.78 2.55398L149.813 2.58551C149.842 2.6142 149.887 2.65821 149.946 2.71737C150.065 2.8357 150.242 3.01464 150.472 3.2529C150.932 3.72944 151.602 4.44316 152.433 5.38378C154.096 7.26523 156.404 10.0532 158.97 13.6653C164.105 20.8919 170.264 31.4027 174.368 44.5415C182.229 69.7074 182.593 104.627 153.506 144.757C168.986 96.9628 157.724 63.1989 142.113 41.1909C133.998 29.7495 124.727 21.511 117.486 16.1326C113.865 13.4426 110.748 11.4654 108.532 10.1585C107.424 9.50499 106.541 9.01887 105.932 8.69485C105.628 8.53283 105.392 8.41132 105.231 8.32966C105.15 8.28883 105.088 8.25795 105.046 8.23696L104.997 8.21287L104.984 8.20636L104.98 8.20448C104.979 8.20393 104.978 8.20353 104.542 9.10383L104.129 9.9595L104.107 10.0041L104.109 10.005L104.118 10.0095L104.159 10.0294C104.195 10.0476 104.252 10.0757 104.326 10.1136C104.476 10.1894 104.7 10.3048 104.992 10.4604C105.577 10.7715 106.435 11.2434 107.516 11.8812C109.679 13.157 112.736 15.0955 116.294 17.7382C123.411 23.0251 132.517 31.1194 140.482 42.348C155.752 63.8762 166.899 97.0205 151.567 144.25C151.56 93.9219 130.399 65.2502 108.733 49.127C97.4808 40.7532 86.1193 35.7824 77.5727 32.9044C73.298 31.4649 69.7232 30.5474 67.2123 29.9892C65.9567 29.71 64.9666 29.5206 64.2876 29.4005C63.948 29.3405 63.6862 29.2978 63.5078 29.2699C63.4186 29.256 63.3502 29.2457 63.3034 29.2388L63.2494 29.2311L63.2347 29.229L63.2304 29.2284C63.2292 29.2282 63.2283 29.2281 63.0925 30.2188L62.9632 31.1607L62.9566 31.2095L62.9585 31.2098L62.9687 31.2113L63.0134 31.2177C63.054 31.2237 63.1161 31.233 63.199 31.2459C63.3646 31.2718 63.6133 31.3123 63.9394 31.37C64.5915 31.4853 65.5528 31.6691 66.7782 31.9415C69.2293 32.4865 72.7351 33.3856 76.9344 34.7998C85.3358 37.6289 96.496 42.5134 107.539 50.7315C128.691 66.4725 149.512 94.5113 149.567 144.075C133.999 96.3021 105.039 75.6022 79.4717 66.9712C66.1818 62.4848 53.8395 61.2684 44.8212 61.1723C40.3106 61.1243 36.6271 61.3564 34.0663 61.6014C32.7858 61.7239 31.7856 61.8497 31.1027 61.9453C30.7612 61.9932 30.499 62.0335 30.3206 62.0621C30.2315 62.0764 30.1633 62.0878 30.1166 62.0957L30.0629 62.105L30.0482 62.1076L30.044 62.1083C30.0428 62.1085 30.0419 62.1087 30.2188 63.0929L30.3869 64.0284L30.3957 64.0771L30.3977 64.0768L30.4077 64.075L30.4523 64.0673C30.4928 64.0604 30.5547 64.0501 30.6375 64.0368C30.8031 64.0102 31.0521 63.9719 31.3801 63.926C32.0359 63.8341 33.0071 63.7119 34.2568 63.5923C36.7565 63.3532 40.3688 63.125 44.7999 63.1722C53.6649 63.2667 65.7892 64.4632 78.832 68.8662C103.833 77.3059 132.324 97.5605 147.684 144.753C118.106 104.07 84.1448 93.319 57.1467 93.0102C43.1204 92.8497 31.0057 95.5068 22.3988 98.2023C18.0939 99.5505 14.6622 100.91 12.3023 101.934C11.1223 102.446 10.2098 102.875 9.58984 103.177C9.27982 103.328 9.04288 103.447 8.88212 103.53C8.80173 103.571 8.74039 103.603 8.69847 103.625L8.65021 103.65L8.6371 103.657L8.63331 103.659C8.63219 103.66 8.63138 103.66 9.10383 104.542L9.5528 105.379L9.57619 105.423L9.57796 105.422L9.587 105.417L9.627 105.396C9.66337 105.377 9.71907 105.348 9.79371 105.31C9.94299 105.233 10.168 105.12 10.4657 104.975C11.0611 104.685 11.947 104.268 13.0987 103.769C15.4023 102.769 18.7675 101.435 22.9965 100.111C31.4572 97.4612 43.3583 94.8526 57.1239 95.0101C83.4992 95.3118 116.839 105.765 146.021 145.866C105.324 116.328 69.7112 116.6 43.9452 124.648C30.5574 128.83 19.8584 135.101 12.5069 140.324C8.82995 142.937 5.98674 145.29 4.05932 146.993C3.0955 147.845 2.36035 148.535 1.86413 149.013C1.61601 149.253 1.42759 149.44 1.30016 149.568C1.23644 149.632 1.18797 149.681 1.1549 149.715L1.11687 149.754L1.10655 149.765L1.10358 149.768C1.1027 149.769 1.10206 149.769 1.8238 150.461L2.51027 151.12L2.54549 151.154L2.54687 151.152L2.55398 151.145L2.58551 151.112C2.6142 151.083 2.65821 151.038 2.71737 150.979C2.8357 150.86 3.01464 150.683 3.2529 150.453C3.72944 149.993 4.44316 149.323 5.38378 148.492C7.26523 146.829 10.0532 144.521 13.6653 141.955C20.8919 136.82 31.4027 130.662 44.5415 126.557C69.7188 118.693 104.659 118.331 144.811 147.459C96.9885 131.953 63.2073 143.217 41.1909 158.834C29.7495 166.949 21.511 176.22 16.1326 183.461C13.4426 187.082 11.4654 190.199 10.1585 192.415C9.50499 193.523 9.01887 194.406 8.69485 195.015C8.53283 195.319 8.41132 195.555 8.32966 195.716L8.28375 195.807C8.26479 195.845 8.2492 195.876 8.23696 195.901L8.21287 195.95L8.20636 195.963L8.20448 195.967C8.20393 195.968 8.20353 195.969 9.10383 196.405L9.95985 196.819L10.0041 196.84L10.005 196.838L10.0095 196.829L10.0294 196.788C10.0476 196.751 10.0757 196.695 10.1136 196.621C10.1894 196.471 10.3048 196.247 10.4604 195.955C10.7715 195.37 11.2434 194.512 11.8812 193.431C13.157 191.268 15.0955 188.211 17.7382 184.653C23.0251 177.536 31.1194 168.43 42.348 160.465C63.8761 145.195 97.0204 134.048 144.25 149.38C93.9218 149.387 65.2502 170.548 49.127 192.214C40.7532 203.466 35.7824 214.828 32.9044 223.374C31.4649 227.649 30.5474 231.224 29.9892 233.735C29.71 234.99 29.5206 235.98 29.4005 236.659C29.3405 236.999 29.2978 237.261 29.2699 237.439C29.256 237.528 29.2457 237.597 29.2388 237.644L29.2311 237.698L29.229 237.712L29.2284 237.716C29.2282 237.718 29.2281 237.719 30.2188 237.854C31.2096 237.99 31.2095 237.991 31.2095 237.99L31.2098 237.988L31.2113 237.978L31.2177 237.934L31.228 237.864C31.2329 237.832 31.2389 237.793 31.2459 237.748C31.2718 237.582 31.3123 237.334 31.37 237.008C31.4853 236.355 31.6691 235.394 31.9415 234.169C32.4865 231.718 33.3856 228.212 34.7998 224.013C37.6289 215.611 42.5134 204.451 50.7315 193.408C66.4716 172.257 94.5081 151.438 144.067 151.38C96.2997 166.949 75.6017 195.907 66.9712 221.472C62.4848 234.762 61.2684 247.105 61.1723 256.123C61.1243 260.634 61.3564 264.317 61.6014 266.878C61.7239 268.158 61.8497 269.159 61.9453 269.841C61.9932 270.183 62.0335 270.445 62.0621 270.624C62.0764 270.713 62.0878 270.781 62.0957 270.828L62.105 270.881L62.1076 270.896L62.1083 270.9C62.1085 270.901 62.1087 270.902 63.0929 270.725L64.0275 270.557L64.0771 270.548L64.0768 270.547L64.075 270.536L64.0673 270.492C64.0604 270.451 64.0501 270.389 64.0368 270.307C64.0102 270.141 63.9719 269.892 63.926 269.564C63.8341 268.908 63.7119 267.937 63.5923 266.687C63.3532 264.188 63.125 260.575 63.1722 256.144C63.2667 247.279 64.4632 235.155 68.8662 222.112C77.3059 197.111 97.5606 168.62 144.753 153.26C104.07 182.838 93.319 216.799 93.0102 243.797C92.8497 257.824 95.5068 269.938 98.2023 278.545C99.5505 282.85 100.91 286.282 101.934 288.642C102.446 289.822 102.875 290.734 103.177 291.354C103.328 291.664 103.447 291.901 103.53 292.062L103.557 292.115L103.594 292.187L103.625 292.246L103.65 292.294L103.657 292.307L103.659 292.311C103.66 292.312 103.66 292.313 104.542 291.84L105.379 291.392L105.423 291.368L105.422 291.366L105.417 291.357L105.396 291.317L105.363 291.254C105.348 291.225 105.33 291.191 105.31 291.15C105.233 291.001 105.12 290.776 104.975 290.478C104.685 289.883 104.268 288.997 103.769 287.845C102.769 285.542 101.435 282.177 100.111 277.948C97.4612 269.487 94.8526 257.586 95.0101 243.82C95.3118 217.445 105.765 184.106 145.865 154.923C116.328 195.62 116.6 231.233 124.648 256.998C128.83 270.386 135.101 281.085 140.324 288.437C142.937 292.114 145.29 294.957 146.993 296.884C147.845 297.848 148.535 298.583 149.013 299.08C149.253 299.328 149.44 299.516 149.568 299.643C149.601 299.677 149.631 299.706 149.656 299.731L149.715 299.789L149.754 299.827L149.765 299.837L149.768 299.84C149.769 299.841 149.769 299.842 150.461 299.12C151.154 298.398 151.154 298.398 151.154 298.398L151.152 298.397L151.145 298.39L151.112 298.358L151.046 298.293L150.979 298.226C150.86 298.108 150.683 297.929 150.453 297.691C149.993 297.214 149.323 296.5 148.492 295.56C146.829 293.678 144.521 290.891 141.955 287.278C136.82 280.052 130.662 269.541 126.557 256.402C118.693 231.225 118.331 196.285 147.459 156.132C131.953 203.955 143.217 237.737 158.834 259.753C166.949 271.195 176.22 279.433 183.461 284.812C187.082 287.502 190.199 289.479 192.415 290.786C193.523 291.439 194.406 291.925 195.015 292.249C195.319 292.411 195.555 292.533 195.716 292.615C195.797 292.655 195.859 292.686 195.901 292.707L195.95 292.731L195.963 292.738L195.967 292.74C195.968 292.74 195.969 292.74 196.053 292.567C196.114 292.44 196.221 292.221 196.405 291.84L196.784 291.056L196.82 290.982L196.84 290.94L196.838 290.939L196.829 290.935L196.788 290.915C196.751 290.897 196.695 290.869 196.621 290.831C196.529 290.784 196.409 290.723 196.263 290.646C196.17 290.598 196.068 290.544 195.955 290.484C195.37 290.173 194.512 289.701 193.431 289.063C191.268 287.787 188.211 285.849 184.653 283.206C177.536 277.919 168.43 269.825 160.465 258.596C145.195 237.068 134.048 203.924 149.38 156.694C149.387 207.022 170.548 235.694 192.214 251.817C203.466 260.191 214.828 265.162 223.374 268.04C227.649 269.479 231.224 270.397 233.735 270.955C234.99 271.234 235.98 271.424 236.659 271.544C236.999 271.604 237.261 271.646 237.439 271.674L237.545 271.691L237.613 271.701L237.644 271.705L237.698 271.713L237.712 271.715L237.716 271.716C237.718 271.716 237.719 271.716 237.854 270.725C237.99 269.735 237.991 269.735 237.99 269.735L237.988 269.734L237.978 269.733L237.934 269.726C237.907 269.723 237.872 269.717 237.827 269.711L237.748 269.698C237.582 269.672 237.334 269.632 237.008 269.574C236.355 269.459 235.394 269.275 234.169 269.003C231.718 268.458 228.212 267.559 224.013 266.144C215.611 263.315 204.451 258.431 193.408 250.213C172.257 234.472 151.437 206.435 151.38 156.874C166.949 204.641 195.907 225.339 221.472 233.97C234.762 238.456 247.105 239.672 256.123 239.768C260.634 239.817 264.317 239.584 266.878 239.339C268.158 239.217 269.159 239.091 269.841 238.995C270.183 238.948 270.445 238.907 270.624 238.879L270.737 238.86L270.828 238.845L270.881 238.836L270.896 238.833L270.9 238.833C270.901 238.832 270.902 238.832 270.725 237.848C270.548 236.864 270.549 236.864 270.548 236.864L270.547 236.864L270.536 236.866L270.492 236.873C270.451 236.88 270.389 236.891 270.307 236.904C270.141 236.931 269.892 236.969 269.564 237.015C268.908 237.107 267.937 237.229 266.687 237.348C264.188 237.588 260.575 237.816 256.144 237.769C247.279 237.674 235.155 236.478 222.112 232.075C197.113 223.635 168.624 203.383 153.263 156.198C182.841 196.877 216.8 207.627 243.797 207.936C257.824 208.096 269.938 205.439 278.545 202.744C282.85 201.396 286.282 200.037 288.642 199.012C289.822 198.5 290.734 198.071 291.354 197.769C291.664 197.618 291.901 197.499 292.062 197.416L292.142 197.375C292.185 197.353 292.219 197.335 292.246 197.321L292.294 197.296L292.307 197.289L292.311 197.287C292.312 197.286 292.313 197.286 291.84 196.405L291.391 195.566L291.368 195.523L291.366 195.524L291.357 195.529L291.317 195.55L291.273 195.573C291.24 195.59 291.199 195.611 291.15 195.636C291.001 195.713 290.776 195.826 290.478 195.971C289.883 196.261 288.997 196.678 287.845 197.178C285.542 198.177 282.177 199.511 277.948 200.835C269.487 203.485 257.586 206.094 243.82 205.936C217.435 205.634 184.081 195.174 154.891 155.036C195.601 184.597 231.226 184.327 256.998 176.277C270.386 172.095 281.085 165.824 288.437 160.601C292.114 157.988 294.957 155.635 296.884 153.932C297.848 153.08 298.583 152.39 299.08 151.912C299.232 151.764 299.363 151.637 299.47 151.531C299.537 151.464 299.595 151.407 299.643 151.357C299.707 151.293 299.756 151.244 299.789 151.21L299.827 151.171L299.837 151.161L299.84 151.157C299.84 151.157 299.841 151.157 299.786 151.104L299.649 150.972C299.543 150.87 299.378 150.711 299.12 150.464C298.398 149.772 298.398 149.771 298.398 149.771L298.397 149.773L298.39 149.78L298.358 149.813L298.311 149.86C298.288 149.884 298.259 149.913 298.226 149.946C298.108 150.065 297.929 150.242 297.691 150.472C297.214 150.932 296.5 151.602 295.56 152.433C293.678 154.096 290.891 156.404 287.278 158.97C280.052 164.105 269.541 170.264 256.402 174.368C231.236 182.229 196.316 182.593 156.187 153.505C203.981 168.986 237.745 157.724 259.753 142.113C271.195 133.998 279.433 124.727 284.812 117.486C287.502 113.865 289.479 110.748 290.786 108.532C291.439 107.424 291.925 106.541 292.249 105.932C292.411 105.628 292.533 105.392 292.615 105.231C292.655 105.15 292.686 105.088 292.707 105.046L292.731 104.997L292.738 104.984L292.74 104.98C292.74 104.979 292.741 104.978 291.84 104.542L290.987 104.13L290.945 104.11L290.94 104.107L290.939 104.109L290.935 104.118L290.915 104.159C290.897 104.195 290.869 104.252 290.831 104.326C290.755 104.476 290.639 104.7 290.484 104.992C290.173 105.577 289.701 106.435 289.063 107.516C287.787 109.679 285.849 112.736 283.206 116.294C277.919 123.411 269.825 132.517 258.596 140.482C237.068 155.752 203.924 166.899 156.694 151.567C207.022 151.56 235.694 130.399 251.817 108.733C260.191 97.4808 265.162 86.1193 268.04 77.5727C269.479 73.298 270.397 69.7232 270.955 67.2123C271.234 65.9567 271.424 64.9666 271.544 64.2876C271.604 63.948 271.646 63.6862 271.674 63.5078C271.688 63.4186 271.698 63.3502 271.705 63.3034L271.713 63.2494L271.715 63.2347L271.716 63.2304C271.716 63.2292 271.716 63.2283 270.725 63.0925C269.735 62.9566 269.735 62.9564 269.735 62.9566L269.734 62.9585L269.733 62.9687L269.726 63.0134C269.72 63.054 269.711 63.1161 269.698 63.199C269.672 63.3646 269.632 63.6133 269.574 63.9394C269.459 64.5915 269.275 65.5528 269.003 66.7782C268.458 69.2293 267.559 72.7351 266.144 76.9344C263.315 85.3358 258.431 96.496 250.213 107.539C234.471 128.692 206.432 149.512 156.865 149.567C204.639 133.999 225.339 105.039 233.97 79.4717C238.456 66.1818 239.672 53.8395 239.768 44.8212C239.817 40.3106 239.584 36.6271 239.339 34.0663C239.217 32.7858 239.091 31.7856 238.995 31.1027C238.948 30.7612 238.907 30.499 238.879 30.3206C238.864 30.2315 238.853 30.1633 238.845 30.1166L238.836 30.0629L238.833 30.0482L238.833 30.044C238.832 30.0428 238.832 30.0419 237.848 30.2188C236.864 30.3958 236.864 30.3956 236.864 30.3957L236.864 30.3977L236.866 30.4077L236.873 30.4523C236.88 30.4928 236.891 30.5547 236.904 30.6375C236.931 30.8031 236.969 31.0521 237.015 31.3801C237.107 32.0359 237.229 33.0071 237.348 34.2568C237.588 36.7565 237.816 40.3688 237.769 44.7999C237.674 53.6649 236.478 65.7892 232.075 78.832C223.635 103.831 203.383 132.32 156.198 147.681C196.877 118.103 207.627 84.1439 207.936 57.1467C208.096 43.1204 205.439 31.0057 202.744 22.3988C201.396 18.0939 200.037 14.6622 199.012 12.3023C198.5 11.1223 198.071 10.2098 197.769 9.58984C197.618 9.27982 197.499 9.04288 197.416 8.88212C197.375 8.80173 197.343 8.74039 197.321 8.69847L197.296 8.65021L197.289 8.6371L197.287 8.63331C197.286 8.63219 197.286 8.63138 196.405 9.10383L195.566 9.55316L195.523 9.57619L195.524 9.57796L195.529 9.587L195.55 9.627C195.569 9.66337 195.598 9.71907 195.636 9.79371C195.713 9.94299 195.826 10.168 195.971 10.4657C196.261 11.0611 196.678 11.947 197.178 13.0987C198.177 15.4023 199.511 18.7675 200.835 22.9965C203.485 31.4572 206.094 43.3583 205.936 57.1239C205.634 83.509 195.173 116.863 155.035 146.054C184.597 105.343 184.327 69.718 176.277 43.9452C172.095 30.5574 165.824 19.8584 160.601 12.5069C157.988 8.82995 155.635 5.98674 153.932 4.05932C153.08 3.0955 152.39 2.36035 151.912 1.86413C151.672 1.61601 151.485 1.42759 151.357 1.30016C151.293 1.23644 151.244 1.18797 151.21 1.1549L151.171 1.11687L151.161 1.10655L151.157 1.10358C151.157 1.1027 151.156 1.10206 150.464 1.8238Z" fill="#05FF00"/>
</svg>
