<svg width="162" height="162" viewBox="0 0 162 162" fill="none" xmlns="http://www.w3.org/2000/svg">
<g id="Group 37">
<path id="Vector" d="M81.0002 35.5824C92.0012 25.4456 106.691 19.2514 122.829 19.2514C125.585 19.2514 128.297 19.4353 130.956 19.7835C117.342 8.66103 99.9507 1.98828 81.0002 1.98828C62.0497 1.98828 44.6581 8.66103 31.043 19.7835C33.7017 19.4335 36.414 19.2514 39.1692 19.2514C55.3074 19.2514 69.9974 25.4456 80.9984 35.5824H81.0002Z" stroke="#05FF00" stroke-width="2" stroke-miterlimit="10"/>
<path id="Vector_2" d="M81.0004 126.42C69.9994 136.557 55.3093 142.751 39.1711 142.751C36.416 142.751 33.7037 142.567 31.0449 142.219C44.6583 153.341 62.0499 160.014 81.0022 160.014C99.9544 160.014 117.344 153.341 130.959 142.219C128.301 142.569 125.588 142.751 122.833 142.751C106.695 142.751 92.005 136.557 81.004 126.42H81.0004Z" stroke="#05FF00" stroke-width="2" stroke-miterlimit="10"/>
<path id="Vector_3" d="M160.013 81.0012C160.013 56.3155 148.69 34.2741 130.957 19.7841C128.299 19.4341 125.586 19.252 122.831 19.252C106.693 19.252 92.003 25.4462 81.002 35.583C93.2475 46.8661 100.92 63.0364 100.92 81.0012C100.92 98.9661 93.2457 115.136 81.002 126.42C92.003 136.556 106.693 142.751 122.831 142.751C125.586 142.751 128.299 142.567 130.957 142.218C148.692 127.728 160.013 105.689 160.013 81.0012Z" stroke="#05FF00" stroke-width="2" stroke-miterlimit="10"/>
<path id="Vector_4" d="M81.0006 126.42C68.7551 115.136 61.0824 98.9661 61.0824 81.0012C61.0824 63.0364 68.7569 46.8661 81.0006 35.583C69.9996 25.4462 55.3096 19.252 39.1714 19.252C36.4162 19.252 33.7039 19.4359 31.0452 19.7841C13.3107 34.2741 1.98828 56.3155 1.98828 81.0012C1.98828 105.687 13.3107 127.728 31.0434 142.218C33.7021 142.568 36.4145 142.751 39.1696 142.751C55.3078 142.751 69.9978 136.556 80.9989 126.42H81.0006Z" stroke="#05FF00" stroke-width="2" stroke-miterlimit="10"/>
<path id="Vector_5" d="M61.082 81.0003C61.082 98.9651 68.7565 115.135 81.0003 126.419C93.2459 115.135 100.919 98.9651 100.919 81.0003C100.919 63.0355 93.2441 46.8652 81.0003 35.582C68.7547 46.8652 61.082 63.0355 61.082 81.0003Z" stroke="#05FF00" stroke-width="2" stroke-miterlimit="10"/>
</g>
</svg>
