<svg width="303" height="303" viewBox="0 0 303 303" fill="none" xmlns="http://www.w3.org/2000/svg">
<path d="M151.937 301.692C234.683 301.692 301.762 234.613 301.762 151.866C301.762 69.1201 234.683 2.04102 151.937 2.04102C69.1904 2.04102 2.11133 69.1201 2.11133 151.866C2.11133 234.613 69.1904 301.692 151.937 301.692Z" stroke="#05FF00" stroke-width="2" stroke-miterlimit="10"/>
<path d="M151.936 301.937C209.857 301.937 256.81 234.803 256.81 151.989C256.81 69.175 209.857 2.04102 151.936 2.04102C94.0162 2.04102 47.0625 69.175 47.0625 151.989C47.0625 234.803 94.0162 301.937 151.936 301.937Z" stroke="#05FF00" stroke-width="2" stroke-miterlimit="10"/>
<path d="M151.937 301.796C178.378 301.796 199.812 234.67 199.812 151.867C199.812 69.063 178.378 1.9375 151.937 1.9375C125.497 1.9375 104.062 69.063 104.062 151.867C104.062 234.67 125.497 301.796 151.937 301.796Z" stroke="#05FF00" stroke-width="2" stroke-miterlimit="10"/>
<path d="M151.99 256.811C234.804 256.811 301.938 209.858 301.938 151.937C301.938 94.0172 234.804 47.0635 151.99 47.0635C69.176 47.0635 2.04199 94.0172 2.04199 151.937C2.04199 209.858 69.176 256.811 151.99 256.811Z" stroke="#05FF00" stroke-width="2" stroke-miterlimit="10"/>
<path d="M151.867 199.812C234.67 199.812 301.796 178.378 301.796 151.937C301.796 125.497 234.67 104.062 151.867 104.062C69.063 104.062 1.9375 125.497 1.9375 151.937C1.9375 178.378 69.063 199.812 151.867 199.812Z" stroke="#05FF00" stroke-width="2" stroke-miterlimit="10"/>
</svg>
