<svg width="2560" height="400" viewBox="0 0 2560 400" fill="none" xmlns="http://www.w3.org/2000/svg">
<mask id="path-1-outside-1_1019_11084" maskUnits="userSpaceOnUse" x="-2" y="0" width="2564" height="400" fill="black">
<rect fill="white" x="-2" width="2564" height="400"/>
<path d="M0 398V2H100.046V398H0ZM311.559 129.851C312.124 161.531 312.689 205.091 312.689 260.531V398H216.6V2H325.125L419.519 155.874C440.998 190.949 461.346 225.457 480.564 259.4L485.086 258.269C483.956 229.983 483.39 190.383 483.39 140.6V2H581.176V398H476.042L385.605 248.086L374.3 228.851C350.56 190.383 331.342 157.006 316.081 128.72L311.559 129.851ZM775.603 398L667.078 2H771.647L780.69 39.9029C787.473 74.4114 795.386 109.486 804.43 144.56C807.822 160.4 812.343 183.029 819.126 211.314C825.344 240.166 830.431 264.491 834.953 284.857H839.475C843.997 258.834 854.171 208.486 869.997 133.811C877.345 99.8686 884.128 68.1886 890.346 37.64L898.259 2H1000.57L1007.91 37.64L1026 121.366C1028.26 132.68 1032.78 155.309 1040.7 189.817C1048.05 224.891 1054.26 256.571 1059.35 284.857H1063.31C1071.79 243.56 1088.18 171.149 1111.92 67.0571L1118.14 39.9029L1127.18 2H1231.75L1122.66 398H1009.05L951.391 124.76H947.435L889.215 398H775.603ZM1661.83 398H1556.13L1527.31 311.446H1374.69L1346.43 398H1244.13L1388.83 2H1512.61L1661.83 398ZM1399 237.337H1502.44L1482.65 179.069C1470.22 140.6 1460.04 107.789 1452.7 80.0686H1448.17C1439.7 111.749 1429.52 144.56 1418.22 179.634L1399 237.337ZM2092.26 398H1992.21L1980.34 312.577C1978.08 298.434 1975.25 287.686 1970.73 280.331C1966.21 273.543 1959.99 268.451 1950.95 265.623C1941.9 263.36 1929.47 261.663 1912.51 261.663H1843.55V398H1743.51V2H1955.47C1995.6 2 2026.69 11.0514 2048.73 28.0229C2070.78 44.9943 2082.08 69.32 2082.08 101C2082.08 129.286 2072.47 152.48 2053.25 170.583C2034.04 188.686 2008.6 198.869 1976.95 200.566V204.526C1998.43 205.091 2015.38 207.92 2028.38 212.446C2041.38 217.537 2051.56 225.457 2058.91 236.771C2065.69 248.086 2070.78 263.36 2074.17 282.594L2092.26 398ZM1923.25 194.343C1941.34 194.343 1956.6 189.251 1967.9 177.937C1979.21 167.189 1984.86 152.48 1984.86 134.377C1984.86 117.971 1979.21 104.394 1967.9 94.2114C1956.6 84.0286 1941.34 78.3715 1923.25 78.3715H1843.55V194.343H1923.25ZM2458.82 23.4971C2489.35 37.64 2514.22 59.7029 2532.3 89.12C2550.39 118.537 2560 155.874 2560 200C2560 269.017 2540.78 318.8 2502.91 350.48C2464.48 382.16 2415.3 398 2355.39 398H2188.08V2H2355.39C2393.82 2 2428.3 9.35429 2458.82 23.4971ZM2351.43 321.629C2382.52 321.629 2407.95 312.011 2427.74 291.646C2446.95 271.28 2457.13 240.731 2457.13 200C2457.13 158.137 2446.95 127.023 2427.74 107.789C2407.95 88.5543 2382.52 78.3715 2351.43 78.3715H2288.12V321.629H2351.43Z"/>
</mask>
<path d="M0 398V2H100.046V398H0ZM311.559 129.851C312.124 161.531 312.689 205.091 312.689 260.531V398H216.6V2H325.125L419.519 155.874C440.998 190.949 461.346 225.457 480.564 259.4L485.086 258.269C483.956 229.983 483.39 190.383 483.39 140.6V2H581.176V398H476.042L385.605 248.086L374.3 228.851C350.56 190.383 331.342 157.006 316.081 128.72L311.559 129.851ZM775.603 398L667.078 2H771.647L780.69 39.9029C787.473 74.4114 795.386 109.486 804.43 144.56C807.822 160.4 812.343 183.029 819.126 211.314C825.344 240.166 830.431 264.491 834.953 284.857H839.475C843.997 258.834 854.171 208.486 869.997 133.811C877.345 99.8686 884.128 68.1886 890.346 37.64L898.259 2H1000.57L1007.91 37.64L1026 121.366C1028.26 132.68 1032.78 155.309 1040.7 189.817C1048.05 224.891 1054.26 256.571 1059.35 284.857H1063.31C1071.79 243.56 1088.18 171.149 1111.92 67.0571L1118.14 39.9029L1127.18 2H1231.75L1122.66 398H1009.05L951.391 124.76H947.435L889.215 398H775.603ZM1661.83 398H1556.13L1527.31 311.446H1374.69L1346.43 398H1244.13L1388.83 2H1512.61L1661.83 398ZM1399 237.337H1502.44L1482.65 179.069C1470.22 140.6 1460.04 107.789 1452.7 80.0686H1448.17C1439.7 111.749 1429.52 144.56 1418.22 179.634L1399 237.337ZM2092.26 398H1992.21L1980.34 312.577C1978.08 298.434 1975.25 287.686 1970.73 280.331C1966.21 273.543 1959.99 268.451 1950.95 265.623C1941.9 263.36 1929.47 261.663 1912.51 261.663H1843.55V398H1743.51V2H1955.47C1995.6 2 2026.69 11.0514 2048.73 28.0229C2070.78 44.9943 2082.08 69.32 2082.08 101C2082.08 129.286 2072.47 152.48 2053.25 170.583C2034.04 188.686 2008.6 198.869 1976.95 200.566V204.526C1998.43 205.091 2015.38 207.92 2028.38 212.446C2041.38 217.537 2051.56 225.457 2058.91 236.771C2065.69 248.086 2070.78 263.36 2074.17 282.594L2092.26 398ZM1923.25 194.343C1941.34 194.343 1956.6 189.251 1967.9 177.937C1979.21 167.189 1984.86 152.48 1984.86 134.377C1984.86 117.971 1979.21 104.394 1967.9 94.2114C1956.6 84.0286 1941.34 78.3715 1923.25 78.3715H1843.55V194.343H1923.25ZM2458.82 23.4971C2489.35 37.64 2514.22 59.7029 2532.3 89.12C2550.39 118.537 2560 155.874 2560 200C2560 269.017 2540.78 318.8 2502.91 350.48C2464.48 382.16 2415.3 398 2355.39 398H2188.08V2H2355.39C2393.82 2 2428.3 9.35429 2458.82 23.4971ZM2351.43 321.629C2382.52 321.629 2407.95 312.011 2427.74 291.646C2446.95 271.28 2457.13 240.731 2457.13 200C2457.13 158.137 2446.95 127.023 2427.74 107.789C2407.95 88.5543 2382.52 78.3715 2351.43 78.3715H2288.12V321.629H2351.43Z" stroke="#05FF00" stroke-width="4" mask="url(#path-1-outside-1_1019_11084)"/>
</svg>
