<svg width="120" height="120" viewBox="0 0 120 120" fill="none" xmlns="http://www.w3.org/2000/svg">
<g id="Top Nav">
<g id="Ellipse 38" opacity="0.9" filter="url(#filter0_b_1019_10091)">
<circle cx="60" cy="60" r="60" fill="#121212"/>
</g>
<path id="Full" fill-rule="evenodd" clip-rule="evenodd" d="M75.1644 43.7628L75.1618 43.7613V43.7602L75.1644 43.7628ZM75.1618 43.7613L53.4045 31.2002L53.3961 49.8515H57.1885V37.7886L71.3905 45.953V49.8515H75.1646L75.1618 43.7613ZM71.3905 70.4056H75.1739L75.1796 83.1381L53.3867 70.568L53.3868 70.4056H60.6221L71.3905 76.7731V76.7706V70.4056ZM48.1212 33.9919L44.0504 36.3648V49.7231H48.1212V33.9919ZM44.0504 76.428V70.5342H48.1212V74.0652L69.5283 86.4349L65.46 88.8002L44.0504 76.428ZM16.8008 52.7316H20.9553V67.2687H16.8008V52.7316ZM27.0187 67.2687V62.4721L27.0161 62.4746C27.0161 60.5763 27.0034 59.0738 26.9755 57.9673L27.1633 57.9267C27.7039 58.952 28.4856 60.3504 29.5109 62.1218L32.5005 67.2712H36.7997V52.7342H32.7492V57.2415C32.7492 59.0256 32.7619 60.4392 32.7898 61.4772L32.6249 61.5178C32.0716 60.4925 31.3585 59.2464 30.4854 57.7795L27.4958 52.7316H23.0316V67.2687H27.0187ZM37.734 52.7316H42.0738L42.3225 53.894L43.0712 57.4877C43.5559 59.787 43.9087 61.5102 44.1295 62.6599H44.2944C44.5025 61.3021 44.868 59.2896 45.3959 56.6172L45.9365 53.8331L46.1446 52.7316H50.3397L50.5478 53.8331L51.0884 56.6172C51.6137 59.2896 51.9817 61.3046 52.1898 62.6599H52.3548C52.7278 60.6245 53.3319 57.7034 54.1618 53.8965L54.4105 52.7342H58.7503L54.8242 67.2712H50.1316L48.3246 57.6983H48.1596L46.3527 67.2712H41.6601L37.734 52.7342V52.7316ZM67.4521 64.34L68.3657 67.2687H72.7689L67.4114 52.7316H62.2621L57.0898 67.2687H61.3256L62.2189 64.34H67.4521ZM65.9369 59.5027L66.5181 61.33L66.5206 61.3326H63.1554L63.696 59.5662C64.1097 58.2084 64.4573 56.975 64.734 55.8685H64.8989C65.1756 56.9623 65.5207 58.1729 65.9369 59.5027ZM82.6304 67.2687L82.2573 64.3197C82.1888 63.7943 82.0797 63.4035 81.935 63.1472C81.7904 62.8908 81.5569 62.7182 81.2396 62.6269C80.9224 62.5381 80.4504 62.4924 79.8286 62.4924H77.7526V67.2687H73.598V52.7316H81.7802C83.275 52.7316 84.4171 53.0387 85.2064 53.6554C85.9956 54.2721 86.3916 55.168 86.3916 56.3456C86.3916 57.3988 86.0312 58.2566 85.3104 58.9216C84.5897 59.5865 83.6354 59.9469 82.4451 60.0002V60.1651C83.275 60.1524 83.94 60.2387 84.4399 60.424C84.9399 60.6093 85.3231 60.9163 85.5921 61.3376C85.8611 61.7589 86.0515 62.3376 86.1631 63.071L86.7875 67.2661H82.6329L82.6304 67.2687ZM81.8107 59.2312C82.1913 58.8581 82.3817 58.3658 82.3817 57.7567C82.3817 57.1882 82.1913 56.7288 81.8107 56.3761C81.43 56.0233 80.9351 55.8456 80.326 55.8456H77.75V59.7921H80.326C80.9351 59.7921 81.43 59.6043 81.8107 59.2312ZM102.213 59.9316C102.213 58.2845 101.868 56.9166 101.175 55.8304C100.485 54.7442 99.566 53.9447 98.424 53.4321C97.2819 52.9194 96.0104 52.6631 94.6121 52.6631H88.1328V67.2001H94.6121C96.8276 67.2001 98.6473 66.6266 100.074 65.4769C101.5 64.3272 102.213 62.4797 102.213 59.9316ZM97.9367 59.9316C97.9367 61.3173 97.6017 62.3553 96.9291 63.0481C96.2566 63.741 95.4293 64.0861 94.4471 64.0861H92.2873V55.7796H94.4268C95.4369 55.7796 96.2744 56.0994 96.9393 56.744C97.6042 57.3886 97.9367 58.4495 97.9367 59.9316Z" fill="white"/>
</g>
<defs>
<filter id="filter0_b_1019_10091" x="-10" y="-10" width="140" height="140" filterUnits="userSpaceOnUse" color-interpolation-filters="sRGB">
<feFlood flood-opacity="0" result="BackgroundImageFix"/>
<feGaussianBlur in="BackgroundImageFix" stdDeviation="5"/>
<feComposite in2="SourceAlpha" operator="in" result="effect1_backgroundBlur_1019_10091"/>
<feBlend mode="normal" in="SourceGraphic" in2="effect1_backgroundBlur_1019_10091" result="shape"/>
</filter>
</defs>
</svg>
