<svg width="225" height="323" viewBox="0 0 225 323" fill="none" xmlns="http://www.w3.org/2000/svg">
<g opacity="0.1">
<g clip-path="url(#clip0_18_2783)">
<path d="M112.021 51.168C112.021 51.168 136.397 74.5448 112.021 105.827" stroke="#05FF00" stroke-width="2" stroke-miterlimit="10"/>
<path d="M95.1338 53.8457C95.1338 53.8457 125.545 68.5483 112.027 105.833" stroke="#05FF00" stroke-width="2" stroke-miterlimit="10"/>
<path d="M79.8931 61.6104C79.8931 61.6104 113.354 66.1973 112.021 105.834" stroke="#05FF00" stroke-width="2" stroke-miterlimit="10"/>
<path d="M67.8042 73.6993C67.8042 73.6993 101.047 67.7221 112.027 105.827" stroke="#05FF00" stroke-width="2" stroke-miterlimit="10"/>
<path d="M60.0396 88.9406C60.0396 88.9406 89.81 72.9823 112.027 105.834" stroke="#05FF00" stroke-width="2" stroke-miterlimit="10"/>
<path d="M57.3618 105.827C57.3618 105.827 80.7387 81.4508 112.021 105.827" stroke="#05FF00" stroke-width="2" stroke-miterlimit="10"/>
<path d="M60.0396 122.721C60.0396 122.721 74.7422 92.3102 112.027 105.828" stroke="#05FF00" stroke-width="2" stroke-miterlimit="10"/>
<path d="M67.8042 137.962C67.8042 137.962 72.3912 104.501 112.027 105.834" stroke="#05FF00" stroke-width="2" stroke-miterlimit="10"/>
<path d="M79.8931 150.05C79.8931 150.05 73.9159 116.808 112.021 105.827" stroke="#05FF00" stroke-width="2" stroke-miterlimit="10"/>
<path d="M95.1335 157.815C95.1335 157.815 79.1752 128.044 112.027 105.827" stroke="#05FF00" stroke-width="2" stroke-miterlimit="10"/>
<path d="M112.021 160.493C112.021 160.493 87.6446 137.116 112.021 105.834" stroke="#05FF00" stroke-width="2" stroke-miterlimit="10"/>
<path d="M128.915 157.815C128.915 157.815 98.5036 143.112 112.021 105.827" stroke="#05FF00" stroke-width="2" stroke-miterlimit="10"/>
<path d="M144.155 150.05C144.155 150.05 110.695 145.463 112.027 105.827" stroke="#05FF00" stroke-width="2" stroke-miterlimit="10"/>
<path d="M156.244 137.962C156.244 137.962 123.002 143.939 112.021 105.834" stroke="#05FF00" stroke-width="2" stroke-miterlimit="10"/>
<path d="M164.009 122.721C164.009 122.721 134.238 138.679 112.021 105.827" stroke="#05FF00" stroke-width="2" stroke-miterlimit="10"/>
<path d="M166.687 105.827C166.687 105.827 143.31 130.203 112.027 105.827" stroke="#05FF00" stroke-width="2" stroke-miterlimit="10"/>
<path d="M164.009 88.9404C164.009 88.9404 149.306 119.352 112.021 105.834" stroke="#05FF00" stroke-width="2" stroke-miterlimit="10"/>
<path d="M156.244 73.6992C156.244 73.6992 151.657 107.16 112.021 105.827" stroke="#05FF00" stroke-width="2" stroke-miterlimit="10"/>
<path d="M144.155 61.6104C144.155 61.6104 150.132 94.8531 112.027 105.834" stroke="#05FF00" stroke-width="2" stroke-miterlimit="10"/>
<path d="M128.915 53.8457C128.915 53.8457 144.873 83.6161 112.021 105.833" stroke="#05FF00" stroke-width="2" stroke-miterlimit="10"/>
</g>
<circle cx="112.023" cy="105.83" r="69.4055" stroke="#05FF00" stroke-width="2"/>
<circle cx="59.0826" cy="214.441" r="16.4649" stroke="#05FF00" stroke-width="2"/>
<circle cx="111.478" cy="214.441" r="16.4649" stroke="#05FF00" stroke-width="2"/>
<circle cx="163.873" cy="214.441" r="16.4649" stroke="#05FF00" stroke-width="2"/>
<circle cx="112.024" cy="105.831" r="54.1237" stroke="#05FF00" stroke-width="2"/>
<circle cx="59.0835" cy="214.44" r="7.73247" stroke="#05FF00" stroke-width="2"/>
<circle cx="111.479" cy="214.44" r="7.73247" stroke="#05FF00" stroke-width="2"/>
<circle cx="111.479" cy="269.019" r="7.73247" stroke="#05FF00" stroke-width="2"/>
<circle cx="163.873" cy="269.019" r="7.73247" stroke="#05FF00" stroke-width="2"/>
<circle cx="163.873" cy="214.44" r="7.73247" stroke="#05FF00" stroke-width="2"/>
<rect x="1.13916" y="1.49512" width="222.861" height="320.01" rx="29" stroke="#05FF00" stroke-width="2"/>
<rect x="28.4282" y="247.096" width="165.008" height="44.937" rx="2" stroke="#05FF00" stroke-width="2"/>
<rect x="38.1392" y="257.495" width="26" height="24" stroke="#05FF00" stroke-width="2"/>
<path d="M34.1392 1.49512H48.1392V26.4951C48.1392 30.3611 45.0052 33.4951 41.1392 33.4951C37.2732 33.4951 34.1392 30.3611 34.1392 26.4951V1.49512Z" stroke="#05FF00" stroke-width="2"/>
<path d="M177.139 1.49512H191.139V26.4951C191.139 30.3611 188.005 33.4951 184.139 33.4951C180.273 33.4951 177.139 30.3611 177.139 26.4951V1.49512Z" stroke="#05FF00" stroke-width="2"/>
<mask id="mask0_18_2783" style="mask-type:alpha" maskUnits="userSpaceOnUse" x="37" y="256" width="29" height="27">
<rect x="37.1392" y="256.495" width="28" height="26" fill="#D9D9D9"/>
</mask>
<g mask="url(#mask0_18_2783)">
<circle cx="42.1392" cy="260.495" r="3" stroke="#05FF00" stroke-width="2"/>
<circle cx="42.1392" cy="272.495" r="3" stroke="#05FF00" stroke-width="2"/>
<circle cx="39.1392" cy="266.495" r="3" stroke="#05FF00" stroke-width="2"/>
<circle cx="39.1392" cy="278.495" r="3" stroke="#05FF00" stroke-width="2"/>
<circle cx="48.1392" cy="260.495" r="3" stroke="#05FF00" stroke-width="2"/>
<circle cx="48.1392" cy="272.495" r="3" stroke="#05FF00" stroke-width="2"/>
<circle cx="45.1392" cy="266.495" r="3" stroke="#05FF00" stroke-width="2"/>
<circle cx="45.1392" cy="278.495" r="3" stroke="#05FF00" stroke-width="2"/>
<circle cx="54.1392" cy="260.495" r="3" stroke="#05FF00" stroke-width="2"/>
<circle cx="54.1392" cy="272.495" r="3" stroke="#05FF00" stroke-width="2"/>
<circle cx="51.1392" cy="266.495" r="3" stroke="#05FF00" stroke-width="2"/>
<circle cx="51.1392" cy="278.495" r="3" stroke="#05FF00" stroke-width="2"/>
<circle cx="60.1392" cy="260.495" r="3" stroke="#05FF00" stroke-width="2"/>
<circle cx="60.1392" cy="272.495" r="3" stroke="#05FF00" stroke-width="2"/>
<circle cx="57.1392" cy="266.495" r="3" stroke="#05FF00" stroke-width="2"/>
<circle cx="57.1392" cy="278.495" r="3" stroke="#05FF00" stroke-width="2"/>
<circle cx="63.1392" cy="266.495" r="3" stroke="#05FF00" stroke-width="2"/>
<circle cx="63.1392" cy="278.495" r="3" stroke="#05FF00" stroke-width="2"/>
</g>
</g>
<defs>
<clipPath id="clip0_18_2783">
<rect width="110.247" height="110.247" fill="white" transform="translate(56.9004 50.707)"/>
</clipPath>
</defs>
</svg>
